<?xml version="1.0" encoding="iso-8859-1"?>
<!-- Generator: Adobe Illustrator 19.0.0, SVG Export Plug-In . SVG Version: 6.00 Build 0)  -->
<svg version="1.1" id="Layer_1" xmlns="http://www.w3.org/2000/svg" xmlns:xlink="http://www.w3.org/1999/xlink" x="0px" y="0px"
	 viewBox="0 0 512 512" style="enable-background:new 0 0 512 512;" xml:space="preserve">
<g>
	<g>
		<path d="M446.373,148.917c-14.005-10.148-30.235-18.35-48.047-24.028C378.538,85.1,340.618,58.124,297.178,58.124
			c-45.256,0-84.521,29.279-103.533,71.822c-8.479-26.521-21.631-49.998-37.705-67.029c-21.607-22.897-46.354-32.213-69.692-26.225
			c-23.334,5.985-40.546,26.06-48.467,56.53c-4.692,18.047-5.788,38.789-3.351,60.289c0.293,2.582,2.448,4.548,5.045,4.548H443.35
			C448.235,158.057,450.329,151.782,446.373,148.917z"/>
	</g>
</g>
<g>
	<g>
		<path d="M494.696,200.313H17.304C7.464,202.116,0,210.717,0,221.078c0,141.159,114.841,256,256,256s256-114.841,256-256
			C512,210.717,504.536,202.116,494.696,200.313z"/>
	</g>
</g>
<g>
</g>
<g>
</g>
<g>
</g>
<g>
</g>
<g>
</g>
<g>
</g>
<g>
</g>
<g>
</g>
<g>
</g>
<g>
</g>
<g>
</g>
<g>
</g>
<g>
</g>
<g>
</g>
<g>
</g>
</svg>
